# xmcd
#
# Track frame offsets: 
#        150
#        11650
#        23245
#        40448
#        50760
#        68810
#        83938
#        93885
#        107105
#        118893
#        130660
#        141388
#        160255
#        171785
#
# Disc length: 2510 seconds
#
# Revision: 0
# Processed by: cddbd v1.5.2PL0 Copyright (c) Steve Scherf et al.
# Submitted via: ExactAudioCopy v0.95b4
#
DISCID=c209cc0e
DTITLE=The Gillis Brothers - Sunshine In The Shadows
DYEAR=1993
DGENRE=Bluegrass
TTITLE0=What Will TheComing Of The Lord Mean To You
TTITLE1=Wake Up , Peter
TTITLE2=Sinner's Plea
TTITLE3=Wake The Town
TTITLE4=Tears Will Never Stain The Streets
TTITLE5=The Promise
TTITLE6=Singing In The Promised Land
TTITLE7=Mother's Last Years
TTITLE8=I Always Call Your Name
TTITLE9=Life Beyond Death
TTITLE10=Over In The Glory Land
TTITLE11=Don't Be Afraid
TTITLE12=Sunshine In The Shadows
TTITLE13=Peace Bells In Glory
EXTD=
EXTT0=
EXTT1=
EXTT2=
EXTT3=
EXTT4=
EXTT5=
EXTT6=
EXTT7=
EXTT8=
EXTT9=
EXTT10=
EXTT11=
EXTT12=
EXTT13=
PLAYORDER=
